<?xml version="1.0" encoding="UTF-8"?>
<svg id="Layer_1" xmlns="http://www.w3.org/2000/svg" width="21" height="21" version="1.1" viewBox="0 0 21 21">
  <!-- Generator: Adobe Illustrator 30.2.0, SVG Export Plug-In . SVG Version: 2.1.1 Build 105)  -->
  <defs>
    <style>
      .st0 {
        fill: #fff;
      }
    </style>
  </defs>
  <path class="st0" d="M13.67,7.35c-.35-.35-.91-.35-1.26,0l-6.31,6.31c-.35.35-.35.91,0,1.26.35.35.91.35,1.26,0l6.31-6.31c.34-.35.33-.91-.02-1.26h.02ZM20.81,1.32l-6.31,18.92c-.11.32-.39.55-.73.6h-.12c-.3,0-.59-.15-.75-.41l-2.94-4.63c-.27-.41-.15-.96.27-1.23.2-.13.44-.17.68-.12.23.05.43.2.56.4l1.94,3.07,5.15-15.46L3.1,7.6l3.04,1.94c.42.26.54.81.28,1.23-.26.42-.81.54-1.23.28L.56,8.11c-.29-.19-.45-.52-.4-.86.04-.34.28-.63.6-.74L19.68.2c.31-.1.66-.02.89.21.24.24.33.59.23.91h0Z"/>
</svg>