<?xml version="1.0" encoding="UTF-8"?><svg id="Layer_1" xmlns="http://www.w3.org/2000/svg" width="125.55" height="50.28" viewBox="0 0 125.55 50.28"><defs><style>.cls-1{fill:#79797f;}.cls-2{fill:#a7bfa2;}</style></defs><path d="M7.06,23.95c-.19-.08-.4-.14-.62-.19.05-.02.09-.03.14-.05.44-.2.8-.48,1.05-.86.26-.38.39-.85.39-1.4,0-.84-.31-1.49-.94-1.95-.63-.46-1.51-.69-2.66-.69H0v10.24h4.71c1.29,0,2.25-.24,2.89-.72.64-.48.96-1.15.96-2.02,0-.59-.13-1.08-.4-1.47-.26-.4-.63-.69-1.1-.89ZM4.35,19.7c.82,0,1.46.15,1.91.46s.68.77.68,1.4-.23,1.08-.68,1.39c-.45.31-1.09.47-1.91.47H1.08v-3.72h3.26ZM6.76,27.7c-.48.31-1.17.46-2.06.46H1.08v-3.85h3.61c.9,0,1.59.15,2.06.46.48.31.72.79.72,1.46s-.24,1.16-.72,1.47Z"/><polygon points="12.41 24.31 17.71 24.31 17.71 23.39 12.41 23.39 12.41 19.74 18.35 19.74 18.35 18.81 11.33 18.81 11.33 29.05 18.57 29.05 18.57 28.12 12.41 28.12 12.41 24.31"/><polygon points="28.9 27.12 22.3 18.81 21.41 18.81 21.41 29.05 22.49 29.05 22.49 20.75 29.08 29.05 29.97 29.05 29.97 18.81 28.9 18.81 28.9 27.12"/><path d="M43.12,24.24c-.38-.2-.79-.36-1.23-.49-.44-.13-.89-.24-1.34-.35-.45-.11-.86-.23-1.24-.37-.38-.14-.68-.33-.91-.57-.23-.24-.34-.57-.34-.97,0-.35.1-.67.29-.94.19-.28.49-.5.89-.67.4-.17.91-.25,1.52-.25.46,0,.93.07,1.43.2.49.14.96.35,1.4.64l.37-.86c-.41-.28-.9-.5-1.46-.67-.57-.16-1.14-.24-1.71-.24-.87,0-1.58.13-2.14.39-.56.26-.97.6-1.24,1.02-.27.42-.4.89-.4,1.4,0,.55.11.99.34,1.32.23.34.53.61.91.81.38.2.79.37,1.24.49.45.12.9.24,1.35.34.45.11.86.23,1.23.37.37.14.67.33.9.58.23.24.34.57.34.97,0,.33-.1.63-.29.91-.19.27-.49.49-.89.65-.4.16-.93.24-1.57.24s-1.31-.12-1.92-.36c-.61-.24-1.1-.53-1.46-.89l-.42.83c.38.39.92.71,1.62.96.7.25,1.43.37,2.19.37.88,0,1.6-.13,2.16-.39.56-.26.98-.6,1.25-1.02.27-.42.41-.89.41-1.38,0-.54-.11-.97-.34-1.3-.23-.33-.53-.6-.91-.8Z"/><polygon points="45.27 19.74 48.87 19.74 48.87 29.05 49.95 29.05 49.95 19.74 53.55 19.74 53.55 18.81 45.27 18.81 45.27 19.74"/><polygon points="56.65 24.31 61.95 24.31 61.95 23.39 56.65 23.39 56.65 19.74 62.59 19.74 62.59 18.81 55.57 18.81 55.57 29.05 62.81 29.05 62.81 28.12 56.65 28.12 56.65 24.31"/><polygon points="66.73 24.31 72.03 24.31 72.03 23.39 66.73 23.39 66.73 19.74 72.68 19.74 72.68 18.81 65.65 18.81 65.65 29.05 72.9 29.05 72.9 28.12 66.73 28.12 66.73 24.31"/><polygon points="83.23 27.12 76.63 18.81 75.74 18.81 75.74 29.05 76.82 29.05 76.82 20.75 83.4 29.05 84.3 29.05 84.3 18.81 83.23 18.81 83.23 27.12"/><path d="M93.32,24.24c-.38-.2-.79-.36-1.23-.49-.44-.13-.89-.24-1.34-.35-.45-.11-.86-.23-1.24-.37-.38-.14-.68-.33-.91-.57-.23-.24-.34-.57-.34-.97,0-.35.1-.67.29-.94.19-.28.49-.5.89-.67.4-.17.91-.25,1.52-.25.46,0,.93.07,1.43.2.49.14.96.35,1.4.64l.37-.86c-.41-.28-.9-.5-1.46-.67-.57-.16-1.14-.24-1.71-.24-.87,0-1.58.13-2.14.39-.56.26-.97.6-1.24,1.02-.27.42-.4.89-.4,1.4,0,.55.11.99.34,1.32.23.34.53.61.91.81.38.2.79.37,1.24.49.45.12.9.24,1.35.34.45.11.86.23,1.23.37.37.14.67.33.9.58.23.24.34.57.34.97,0,.33-.1.63-.29.91-.19.27-.49.49-.89.65-.4.16-.93.24-1.57.24s-1.31-.12-1.92-.36c-.61-.24-1.1-.53-1.46-.89l-.42.83c.38.39.92.71,1.62.96.7.25,1.43.37,2.19.37.88,0,1.6-.13,2.16-.39.56-.26.98-.6,1.25-1.02.27-.42.41-.89.41-1.38,0-.54-.11-.97-.34-1.3-.23-.33-.53-.6-.91-.8Z"/><polygon points="95.46 19.74 99.06 19.74 99.06 29.05 100.15 29.05 100.15 19.74 103.75 19.74 103.75 18.81 95.46 18.81 95.46 19.74"/><path d="M111.84,25.39c.62-.28,1.1-.68,1.44-1.2.34-.52.5-1.14.5-1.87,0-1.1-.37-1.96-1.12-2.58-.75-.62-1.77-.93-3.07-.93h-3.83v10.24h1.08v-3.25h2.75c.29,0,.56-.02.82-.05l2.34,3.3h1.19l-2.5-3.52c.14-.05.27-.09.4-.15ZM109.57,24.88h-2.72v-5.14h2.72c1.02,0,1.8.22,2.33.67.53.45.8,1.08.8,1.9s-.27,1.44-.8,1.89c-.53.45-1.31.67-2.33.67Z"/><path d="M124.29,29.05h1.14l-4.68-10.24h-1.07l-4.68,10.24h1.13l1.22-2.74h5.72l1.22,2.74ZM117.75,25.44l2.47-5.51,2.47,5.51h-4.93Z"/><polygon class="cls-2" points="6.41 39.24 4.84 34.59 4.09 34.59 2.49 39.22 .95 34.59 .11 34.59 2.02 40.28 2.89 40.28 4.44 35.73 5.99 40.28 6.85 40.28 8.75 34.59 7.98 34.59 6.41 39.24"/><polygon class="cls-2" points="15.61 37.04 12.35 37.04 12.35 34.59 11.53 34.59 11.53 40.28 12.35 40.28 12.35 37.74 15.61 37.74 15.61 40.28 16.43 40.28 16.43 34.59 15.61 34.59 15.61 37.04"/><polygon class="cls-2" points="20.74 37.74 23.59 37.74 23.59 37.04 20.74 37.04 20.74 35.3 23.94 35.3 23.94 34.59 19.92 34.59 19.92 40.28 24.06 40.28 24.06 39.57 20.74 39.57 20.74 37.74"/><polygon class="cls-2" points="32.06 40.28 32.06 34.59 31.24 34.59 31.24 38.83 27.83 34.59 27.16 34.59 27.16 40.28 27.98 40.28 27.98 36.04 31.39 40.28 32.06 40.28"/><rect class="cls-2" x="39.53" y="34.59" width=".81" height="5.69"/><polygon class="cls-2" points="44.97 40.28 45.78 40.28 45.78 35.3 47.73 35.3 47.73 34.59 43.02 34.59 43.02 35.3 44.97 35.3 44.97 40.28"/><polygon class="cls-2" points="55.2 37.98 58.05 37.98 58.05 37.28 55.2 37.28 55.2 35.3 58.4 35.3 58.4 34.59 54.38 34.59 54.38 40.28 55.2 40.28 55.2 37.98"/><polygon class="cls-2" points="62.15 37.74 65 37.74 65 37.04 62.15 37.04 62.15 35.3 65.35 35.3 65.35 34.59 61.34 34.59 61.34 40.28 65.47 40.28 65.47 39.57 62.15 39.57 62.15 37.74"/><polygon class="cls-2" points="69.39 37.74 72.24 37.74 72.24 37.04 69.39 37.04 69.39 35.3 72.59 35.3 72.59 34.59 68.57 34.59 68.57 40.28 72.7 40.28 72.7 39.57 69.39 39.57 69.39 37.74"/><polygon class="cls-2" points="79.71 39.57 76.62 39.57 76.62 34.59 75.81 34.59 75.81 40.28 79.71 40.28 79.71 39.57"/><path class="cls-2" d="M84.84,39.54c-.21.08-.47.11-.8.11-.36,0-.71-.06-1.05-.19-.34-.12-.61-.28-.83-.47l-.3.63c.23.21.54.38.94.52.4.13.81.2,1.24.2.5,0,.91-.07,1.24-.22.33-.15.57-.35.73-.59.16-.25.24-.51.24-.8s-.06-.54-.19-.73c-.13-.19-.29-.34-.49-.46-.2-.11-.43-.21-.68-.28-.25-.07-.49-.13-.74-.19s-.47-.12-.67-.19c-.2-.07-.37-.17-.5-.28s-.19-.28-.19-.48c0-.17.05-.32.14-.46.09-.14.24-.24.45-.33.21-.08.47-.12.79-.12.26,0,.52.04.79.11.27.07.53.19.77.35l.27-.65c-.24-.16-.52-.29-.85-.37-.33-.09-.65-.13-.98-.13-.5,0-.91.07-1.23.22-.32.15-.56.35-.72.59-.15.25-.23.52-.23.81s.06.55.19.74c.12.19.29.35.49.46.2.11.43.21.68.28.25.07.49.14.74.19.24.05.47.12.67.19.2.07.37.17.5.29.13.12.19.28.19.47,0,.17-.05.32-.15.45-.1.13-.25.24-.46.31Z"/><path class="cls-2" d="M96.69,38.31c.35-.16.62-.38.81-.68.19-.3.28-.65.28-1.06,0-.62-.21-1.11-.63-1.46s-1-.52-1.74-.52h-2.22v5.69h.81v-1.73h1.41c.13,0,.23-.02.35-.03l1.24,1.76h.89l-1.36-1.92c.05-.02.11-.03.16-.05ZM95.39,37.86h-1.38v-2.56h1.38c.52,0,.91.11,1.18.33.27.22.4.54.4.94s-.13.72-.4.95c-.27.22-.66.34-1.18.34Z"/><rect class="cls-2" x="100.89" y="34.59" width=".81" height="5.69"/><path class="cls-2" d="M106.19,35.86c.2-.19.44-.35.72-.46.28-.11.58-.16.91-.16s.62.05.89.16c.27.11.53.27.76.5l.5-.5c-.26-.29-.58-.51-.95-.66-.37-.15-.79-.22-1.24-.22s-.85.07-1.22.22c-.37.14-.69.35-.96.61-.27.26-.49.57-.64.92-.15.35-.23.74-.23,1.16s.08.81.23,1.16c.15.35.36.66.63.92.27.26.59.47.96.61.37.14.77.22,1.21.22.4,0,.79-.06,1.17-.18.38-.12.71-.3.99-.54v-2.22h-.78v1.85c-.15.1-.3.18-.46.23-.28.1-.57.14-.87.14-.33,0-.63-.05-.9-.16-.28-.11-.52-.26-.72-.46-.2-.2-.36-.43-.47-.7-.11-.27-.17-.56-.17-.87s.06-.61.17-.87c.11-.27.27-.5.47-.7Z"/><polygon class="cls-2" points="117.35 37.04 114.08 37.04 114.08 34.59 113.27 34.59 113.27 40.28 114.08 40.28 114.08 37.74 117.35 37.74 117.35 40.28 118.16 40.28 118.16 34.59 117.35 34.59 117.35 37.04"/><polygon class="cls-2" points="120.84 34.59 120.84 35.3 122.79 35.3 122.79 40.28 123.6 40.28 123.6 35.3 125.55 35.3 125.55 34.59 120.84 34.59"/><rect class="cls-2" x="31.49" y="47.01" width="2.19" height=".67"/><rect class="cls-2" x="40.84" y="44.53" width=".81" height="5.69"/><polygon class="cls-2" points="44.33 45.23 46.28 45.23 46.28 50.22 47.09 50.22 47.09 45.23 49.04 45.23 49.04 44.53 44.33 44.53 44.33 45.23"/><polygon class="cls-2" points="61.39 49.18 59.82 44.53 59.07 44.53 57.48 49.16 55.94 44.53 55.1 44.53 57 50.22 57.87 50.22 59.43 45.67 60.98 50.22 61.83 50.22 63.73 44.53 62.96 44.53 61.39 49.18"/><path class="cls-2" d="M71.19,45.29c-.27-.26-.59-.47-.96-.61-.37-.14-.77-.22-1.2-.22s-.84.07-1.21.22c-.37.15-.69.35-.96.61-.27.26-.48.57-.63.92-.15.35-.23.74-.23,1.15s.08.8.23,1.15c.15.35.36.66.63.92s.59.47.96.61.77.22,1.21.22.84-.07,1.2-.22c.37-.14.69-.35.96-.61.27-.26.48-.57.63-.92.15-.35.22-.74.22-1.16s-.07-.8-.22-1.16-.36-.66-.63-.93ZM71.07,48.24c-.11.27-.27.5-.46.7-.2.2-.43.35-.7.46-.27.11-.56.16-.88.16s-.61-.05-.87-.16c-.27-.11-.5-.26-.7-.46-.2-.2-.36-.43-.47-.7-.11-.27-.17-.56-.17-.87s.06-.6.17-.87c.11-.26.27-.49.47-.7.2-.2.44-.35.7-.46.27-.11.56-.16.87-.16s.61.05.88.16c.27.11.5.26.7.46.2.2.35.43.46.7.11.26.17.55.17.87s-.06.6-.17.87Z"/><path class="cls-2" d="M78.58,48.25c.35-.16.62-.38.81-.68.19-.3.28-.65.28-1.06,0-.62-.21-1.11-.63-1.46s-1-.52-1.74-.52h-2.22v5.69h.81v-1.73h1.41c.13,0,.23-.02.35-.03l1.24,1.76h.89l-1.36-1.92c.05-.02.11-.03.16-.05ZM77.28,47.8h-1.38v-2.56h1.38c.52,0,.91.11,1.18.33.27.22.4.54.4.94s-.13.72-.4.95c-.27.22-.66.34-1.18.34Z"/><polygon class="cls-2" points="87.61 44.53 86.68 44.53 83.59 47.71 83.59 44.53 82.78 44.53 82.78 50.22 83.59 50.22 83.59 48.75 84.64 47.69 86.81 50.22 87.77 50.22 85.18 47.09 87.61 44.53"/><path class="cls-2" d="M93.48,47.48c-.2-.11-.43-.21-.68-.28-.25-.07-.49-.13-.74-.19s-.47-.12-.67-.19c-.2-.07-.37-.17-.5-.28-.13-.12-.19-.28-.19-.48,0-.17.05-.32.14-.46.09-.14.24-.24.45-.33.21-.08.47-.12.79-.12.26,0,.52.04.79.11.27.07.53.19.77.35l.27-.65c-.24-.16-.52-.29-.85-.37-.33-.09-.65-.13-.98-.13-.5,0-.91.07-1.23.22-.32.15-.56.35-.72.59-.15.25-.23.52-.23.81s.06.55.19.74c.12.19.29.35.49.46.2.11.43.21.68.28.25.07.49.14.74.19.24.05.47.12.67.19.2.07.37.17.5.29.13.12.19.28.19.47,0,.17-.05.32-.15.45-.1.13-.25.24-.46.31-.21.08-.47.11-.8.11-.36,0-.71-.06-1.05-.19-.34-.12-.61-.28-.83-.47l-.3.63c.23.21.54.38.94.52.4.13.81.2,1.24.2.5,0,.91-.07,1.24-.22.33-.15.57-.35.73-.59.16-.25.24-.51.24-.8s-.06-.54-.19-.73c-.12-.19-.29-.34-.49-.46Z"/><path class="cls-1" d="M9.61.46l-3.52,7.7h.85l.92-2.06h4.3l.92,2.06h.86L10.42.46h-.8ZM8.16,5.45l1.85-4.14,1.85,4.14h-3.71Z"/><path class="cls-1" d="M22.39,2.7c-.44-.25-.93-.37-1.48-.37-.5,0-.95.11-1.35.34-.35.2-.62.49-.85.84V0h-.78v8.16h.75v-1.17c.23.37.51.68.87.88.4.23.86.35,1.36.35.55,0,1.04-.12,1.48-.37.44-.25.78-.6,1.03-1.04.25-.44.37-.96.37-1.53s-.12-1.1-.37-1.54c-.25-.44-.59-.78-1.03-1.03ZM22.72,6.45c-.19.34-.45.6-.77.79-.32.19-.69.28-1.1.28s-.78-.09-1.11-.28-.58-.45-.77-.79c-.19-.34-.28-.74-.28-1.18s.09-.85.28-1.19c.19-.34.44-.6.77-.79s.7-.28,1.11-.28.78.09,1.1.28c.32.19.58.45.77.79s.29.73.29,1.19-.1.84-.29,1.18Z"/><path class="cls-1" d="M29.82,5.41c0,.44-.08.82-.24,1.13-.16.32-.38.56-.68.72s-.65.25-1.05.25c-.55,0-.98-.16-1.28-.47-.3-.31-.46-.78-.46-1.39v-3.27h-.78v3.35c0,.55.1,1.01.3,1.38.2.37.49.64.85.82.37.18.79.28,1.29.28s.96-.12,1.35-.36c.32-.2.55-.47.73-.8v1.1h.75V2.39h-.78v3.02Z"/><path class="cls-1" d="M35.97,5.35c-.22-.11-.47-.19-.74-.25-.27-.06-.54-.12-.8-.16s-.51-.1-.74-.17c-.22-.07-.4-.17-.54-.29-.14-.12-.2-.3-.2-.52,0-.28.12-.51.37-.69.25-.18.63-.27,1.15-.27.29,0,.59.04.88.12.29.08.57.2.83.38l.34-.63c-.24-.16-.55-.29-.92-.39-.37-.1-.75-.15-1.12-.15-.49,0-.91.07-1.25.21-.34.14-.6.34-.78.59-.18.25-.26.53-.26.85s.07.59.2.79c.14.2.31.35.53.47.22.11.46.2.73.26.27.06.54.11.81.15.27.04.52.1.74.16.22.06.4.15.53.27.13.12.2.29.2.5,0,.29-.12.52-.36.69-.24.17-.64.26-1.19.26-.4,0-.79-.06-1.16-.19-.37-.13-.67-.28-.9-.46l-.35.62c.24.21.58.38,1,.51.42.14.88.2,1.35.2.51,0,.94-.07,1.29-.2s.63-.33.81-.57c.19-.25.28-.54.28-.87,0-.31-.07-.57-.2-.76s-.32-.34-.54-.45Z"/><rect class="cls-1" x="38.15" y="2.39" width=".78" height="5.77"/><path class="cls-1" d="M38.54,0c-.16,0-.3.05-.41.16s-.17.24-.17.39.05.29.17.4c.11.11.25.17.41.17s.31-.06.41-.17c.11-.11.16-.25.16-.41s-.05-.28-.17-.38c-.11-.1-.25-.15-.41-.15Z"/><path class="cls-1" d="M45.29,2.6c-.36-.18-.77-.27-1.24-.27-.56,0-1.04.12-1.44.36-.34.2-.58.47-.76.8v-1.1h-.75v5.77h.78v-3.04c0-.44.08-.82.25-1.13.17-.31.4-.55.7-.71.3-.17.66-.25,1.07-.25.55,0,.98.16,1.28.47.3.31.46.77.46,1.38v3.28h.78v-3.35c0-.56-.1-1.02-.3-1.39-.2-.37-.48-.64-.84-.82Z"/><path class="cls-1" d="M52.23,2.7c-.42-.25-.9-.37-1.45-.37s-1.02.13-1.45.38c-.43.25-.77.6-1.01,1.04-.25.44-.37.95-.37,1.52s.13,1.08.38,1.52c.26.44.61.79,1.07,1.04.46.25.98.38,1.58.38.46,0,.89-.08,1.27-.24.38-.16.71-.4.96-.7l-.44-.51c-.22.26-.48.45-.79.57-.3.12-.63.19-.98.19-.45,0-.85-.09-1.19-.28-.35-.19-.62-.45-.81-.78-.16-.28-.24-.6-.27-.95h4.84s0-.09,0-.13c0-.04,0-.08,0-.12,0-.58-.12-1.09-.36-1.53-.24-.44-.57-.79-1-1.03ZM48.98,4.05c.18-.33.42-.59.74-.77.32-.18.67-.28,1.07-.28s.76.09,1.07.28c.31.18.55.44.73.76.14.26.22.56.24.89h-4.08c.03-.32.1-.62.24-.88Z"/><path class="cls-1" d="M58.38,5.35c-.22-.11-.47-.19-.74-.25-.27-.06-.54-.12-.8-.16s-.51-.1-.74-.17c-.22-.07-.4-.17-.54-.29-.14-.12-.2-.3-.2-.52,0-.28.12-.51.37-.69.25-.18.63-.27,1.15-.27.29,0,.59.04.88.12.29.08.57.2.83.38l.34-.63c-.24-.16-.55-.29-.92-.39-.37-.1-.75-.15-1.12-.15-.49,0-.91.07-1.25.21-.34.14-.6.34-.78.59-.18.25-.26.53-.26.85s.07.59.2.79c.14.2.31.35.53.47.22.11.46.2.73.26.27.06.54.11.81.15.27.04.52.1.74.16.22.06.4.15.53.27.13.12.2.29.2.5,0,.29-.12.52-.36.69-.24.17-.64.26-1.19.26-.4,0-.79-.06-1.16-.19-.37-.13-.67-.28-.9-.46l-.35.62c.24.21.58.38,1,.51.42.14.88.2,1.35.2.51,0,.94-.07,1.29-.2s.63-.33.81-.57c.19-.25.28-.54.28-.87,0-.31-.07-.57-.2-.76s-.32-.34-.54-.45Z"/><path class="cls-1" d="M63.75,5.35c-.22-.11-.47-.19-.74-.25-.27-.06-.54-.12-.8-.16s-.51-.1-.74-.17c-.22-.07-.4-.17-.54-.29-.14-.12-.2-.3-.2-.52,0-.28.12-.51.37-.69.25-.18.63-.27,1.15-.27.29,0,.59.04.88.12.29.08.57.2.83.38l.34-.63c-.24-.16-.55-.29-.92-.39-.37-.1-.75-.15-1.12-.15-.49,0-.91.07-1.25.21-.34.14-.6.34-.78.59-.18.25-.26.53-.26.85s.07.59.2.79c.14.2.31.35.53.47.22.11.46.2.73.26.27.06.54.11.81.15.27.04.52.1.74.16.22.06.4.15.53.27.13.12.2.29.2.5,0,.29-.12.52-.36.69-.24.17-.64.26-1.19.26-.4,0-.79-.06-1.16-.19-.37-.13-.67-.28-.9-.46l-.35.62c.24.21.58.38,1,.51.42.14.88.2,1.35.2.51,0,.94-.07,1.29-.2s.63-.33.81-.57c.19-.25.28-.54.28-.87,0-.31-.07-.57-.2-.76s-.32-.34-.54-.45Z"/><path class="cls-1" d="M77.25,2.6c-.35-.18-.76-.27-1.23-.27-.6,0-1.12.15-1.54.43-.33.23-.57.52-.74.86-.14-.36-.33-.66-.62-.87-.4-.28-.88-.42-1.44-.42-.54,0-1,.12-1.39.36-.32.2-.56.47-.73.79v-1.09h-.75v5.77h.78v-3.04c0-.44.08-.82.24-1.13.16-.31.38-.55.68-.71.29-.17.63-.25,1.02-.25.53,0,.94.16,1.23.47.29.31.44.77.44,1.38v3.28h.78v-3.04c0-.44.08-.82.24-1.13.16-.31.38-.55.67-.71.29-.17.63-.25,1.03-.25.53,0,.94.16,1.23.47.29.31.43.77.43,1.38v3.28h.78v-3.35c0-.56-.1-1.02-.29-1.39-.19-.37-.47-.64-.81-.82Z"/><path class="cls-1" d="M84.35,2.71c-.44-.25-.95-.38-1.52-.38s-1.07.12-1.51.37c-.44.25-.79.59-1.04,1.03s-.38.95-.38,1.53.13,1.07.38,1.52.61.8,1.04,1.05c.44.25.94.38,1.51.38s1.07-.13,1.52-.38c.45-.25.8-.6,1.05-1.04.25-.44.38-.95.38-1.52s-.13-1.09-.38-1.52c-.25-.44-.6-.78-1.04-1.03ZM84.7,6.45c-.19.34-.44.6-.76.79-.32.19-.69.28-1.11.28s-.78-.09-1.09-.28-.57-.45-.76-.79-.29-.74-.29-1.18.1-.85.29-1.19.45-.6.77-.79c.32-.19.69-.28,1.1-.28s.78.09,1.1.28c.32.19.58.45.76.79.19.34.28.73.28,1.19s-.09.84-.28,1.18Z"/><path class="cls-1" d="M91.87,3.51c-.22-.35-.5-.64-.84-.84-.4-.23-.85-.34-1.36-.34-.55,0-1.04.12-1.48.37s-.78.59-1.03,1.03-.37.95-.37,1.54.12,1.09.37,1.53.59.79,1.03,1.04c.44.25.93.37,1.48.37.51,0,.97-.12,1.37-.35.36-.21.64-.51.86-.88v1.17h.75V0h-.78v3.51ZM91.6,6.45c-.19.34-.44.6-.77.79-.33.19-.7.28-1.11.28s-.77-.09-1.09-.28c-.32-.19-.58-.45-.77-.79s-.29-.74-.29-1.18.1-.85.29-1.19.45-.6.77-.79c.32-.19.69-.28,1.09-.28s.78.09,1.11.28c.33.19.58.45.77.79.19.34.28.73.28,1.19s-.09.84-.28,1.18Z"/><path class="cls-1" d="M98.52,2.7c-.42-.25-.9-.37-1.45-.37s-1.02.13-1.45.38c-.43.25-.77.6-1.01,1.04-.25.44-.37.95-.37,1.52s.13,1.08.38,1.52c.26.44.61.79,1.07,1.04.46.25.98.38,1.58.38.46,0,.89-.08,1.27-.24.38-.16.71-.4.96-.7l-.44-.51c-.22.26-.48.45-.79.57-.3.12-.63.19-.98.19-.45,0-.85-.09-1.19-.28-.35-.19-.62-.45-.81-.78-.16-.28-.24-.6-.27-.95h4.84s0-.09,0-.13c0-.04,0-.08,0-.12,0-.58-.12-1.09-.36-1.53-.24-.44-.57-.79-1-1.03ZM95.27,4.05c.18-.33.42-.59.74-.77.32-.18.67-.28,1.07-.28s.76.09,1.07.28c.31.18.55.44.73.76.14.26.22.56.24.89h-4.08c.03-.32.1-.62.24-.88Z"/><rect class="cls-1" x="101.47" width=".78" height="8.16"/><path class="cls-1" d="M111.77,2.7c-.44-.25-.93-.37-1.48-.37-.5,0-.95.11-1.35.34-.35.2-.62.49-.85.84V0h-.78v8.16h.75v-1.17c.23.37.51.68.87.88.4.23.86.35,1.36.35.55,0,1.04-.12,1.48-.37.44-.25.78-.6,1.03-1.04.25-.44.37-.96.37-1.53s-.12-1.1-.37-1.54c-.25-.44-.59-.78-1.03-1.03ZM112.11,6.45c-.19.34-.45.6-.77.79-.32.19-.69.28-1.1.28s-.78-.09-1.11-.28-.58-.45-.77-.79c-.19-.34-.28-.74-.28-1.18s.09-.85.28-1.19c.19-.34.44-.6.77-.79s.7-.28,1.11-.28.78.09,1.1.28c.32.19.58.45.77.79s.29.73.29,1.19-.1.84-.29,1.18Z"/><path class="cls-1" d="M118.7,2.39l-2.18,4.91-2.18-4.91h-.81l2.58,5.76-.25.56c-.17.36-.35.61-.53.75-.19.14-.41.21-.67.21-.21,0-.41-.04-.58-.12-.17-.08-.33-.19-.48-.32l-.36.58c.18.18.39.31.63.4s.5.13.78.13.53-.05.76-.14c.23-.09.44-.25.63-.47s.37-.52.53-.89l2.89-6.47h-.77Z"/></svg>